<?xml version="1.0" encoding="UTF-8"?>
<svg viewBox="0 0 480 480" xmlns="http://www.w3.org/2000/svg">
 <path d="m110.94 381.34c-1.5165 0.0155-3.136 10.249-10.938 30.656h-0.09375v21.406c-18.025-0.18621-21.577-0.11778-41.875 0.03125h-0.15625v37.938h46.062v-5.0312h17.375v-54.344h-0.09375c-7.3536-20.469-8.7647-30.672-10.281-30.656z" stroke="#898989" stroke-linecap="round" stroke-linejoin="round" stroke-width=".09432"/>
 <path d="m397.97 429.64-12.074 11.677h-0.0904v26.353h24.347v-26.353h-0.10845l-12.074-11.677z" stroke="#898989" stroke-linecap="round" stroke-linejoin="round" stroke-width=".05714"/>
 <path d="m346.48 379.04h-0.10757v87.651h28.977v-87.651h-0.12907c-13.921-0.57084-14.991-0.37091-28.741 0z" stroke="#898989" stroke-linecap="round" stroke-linejoin="round" stroke-width=".11368"/>
 <path d="m37.326 443.88-9.8231 9.7316h-0.07353v21.962h19.808v-21.962h-0.08823l-9.8231-9.7316z" stroke="#898989" stroke-linecap="round" stroke-linejoin="round" stroke-width=".04705"/>
 <path d="m307.18 155.72c7.4428-0.51819 14.044 1.0665 19.733 4.9333 13.115-4.8179 115.99 15.626-2.3022-24.009-117.97-30.097-30.558 6.2197-17.431 19.075z" stroke="#000"/>
 <path d="m295.34 126.78c18.442 4.0825 37.579 9.0027 59.623 17.431-13.727-22.726-32.193-32.765-59.623-17.431z" stroke="#000" stroke-width="1.0178"/>
 <path d="m307.52 156.4 18.581 4.684" fill="none" stroke="#000" stroke-linecap="round" stroke-linejoin="round" stroke-width="1.3974"/>
 <g transform="matrix(-1.5195 0 0 1.5195 639.51 -37.71)" stroke="#000">
  <path d="m307.18 155.72c7.4428-0.51819 14.044 1.0665 19.733 4.9333 13.115-4.8179 115.99 15.626-2.3022-24.009-117.97-30.097-30.558 6.2197-17.431 19.075z"/>
  <path d="m295.34 126.78c18.442 4.0825 37.579 9.0027 59.623 17.431-13.727-22.726-32.193-32.765-59.623-17.431z" stroke-width="1.0178"/>
  <path d="m307.52 156.4 18.581 4.684" fill="none" stroke-linecap="round" stroke-linejoin="round" stroke-width="1.3974"/>
 </g>
 <g transform="matrix(.60641 0 0 .60641 -9.4014 3.2758)" stroke="#000">
  <path d="m307.18 155.72c7.4428-0.51819 14.044 1.0665 19.733 4.9333 13.115-4.8179 115.99 15.626-2.3022-24.009-117.97-30.097-30.558 6.2197-17.431 19.075z"/>
  <path d="m295.34 126.78c18.442 4.0825 37.579 9.0027 59.623 17.431-13.727-22.726-32.193-32.765-59.623-17.431z" stroke-width="1.0178"/>
  <path d="m307.52 156.4 18.581 4.684" fill="none" stroke-linecap="round" stroke-linejoin="round" stroke-width="1.3974"/>
 </g>
 <g transform="matrix(1.6691 0 0 1.6691 -223.18 13.307)" stroke="#000">
  <path d="m307.18 155.72c7.4428-0.51819 14.044 1.0665 19.733 4.9333 13.115-4.8179 115.99 15.626-2.3022-24.009-117.97-30.097-30.558 6.2197-17.431 19.075z"/>
  <path d="m295.34 126.78c18.442 4.0825 37.579 9.0027 59.623 17.431-13.727-22.726-32.193-32.765-59.623-17.431z" stroke-width="1.0178"/>
  <path d="m307.52 156.4 18.581 4.684" fill="none" stroke-linecap="round" stroke-linejoin="round" stroke-width="1.3974"/>
 </g>
 <g transform="matrix(-.55918 0 0 .55918 465.81 -9.5268)" stroke="#000">
  <path d="m307.18 155.72c7.4428-0.51819 14.044 1.0665 19.733 4.9333 13.115-4.8179 115.99 15.626-2.3022-24.009-117.97-30.097-30.558 6.2197-17.431 19.075z"/>
  <path d="m295.34 126.78c18.442 4.0825 37.579 9.0027 59.623 17.431-13.727-22.726-32.193-32.765-59.623-17.431z" stroke-width="1.0178"/>
  <path d="m307.52 156.4 18.581 4.684" fill="none" stroke-linecap="round" stroke-linejoin="round" stroke-width="1.3974"/>
 </g>
 <path transform="translate(11.84 -220.35)" d="m245.35 410.93c-0.47244 0-1.1494-1.9106-1.5858-2.0914s-2.2662 0.69158-2.6002 0.35751 0.53831-2.1637 0.35752-2.6002-2.0914-1.1134-2.0914-1.5858 1.9106-1.1494 2.0914-1.5858-0.69158-2.2662-0.35752-2.6002 2.1637 0.53831 2.6002 0.35751 1.1134-2.0914 1.5858-2.0914 1.1494 1.9106 1.5858 2.0914 2.2662-0.69158 2.6002-0.35751-0.53831 2.1637-0.35752 2.6002 2.0914 1.1134 2.0914 1.5858-1.9106 1.1494-2.0914 1.5858 0.69158 2.2662 0.35752 2.6002-2.1637-0.53831-2.6002-0.35751-1.1134 2.0914-1.5858 2.0914z" stroke="#898989" stroke-linecap="round" stroke-linejoin="round" stroke-width=".1"/>
 <path d="m401.9 101.78c-0.31497 0.10499-1.1908-1.0183-1.522-1.0419s-1.3571 0.96464-1.654 0.81617-0.12195-1.5621-0.33948-1.8129-1.6417-0.2775-1.7467-0.59246 1.0183-1.1908 1.0419-1.522-0.96465-1.3571-0.81617-1.654 1.5621-0.12196 1.8129-0.33948 0.2775-1.6417 0.59246-1.7467 1.1908 1.0184 1.522 1.0419 1.3571-0.96464 1.654-0.81617 0.12196 1.5621 0.33949 1.8129 1.6417 0.2775 1.7467 0.59246-1.0183 1.1908-1.0419 1.522 0.96464 1.3571 0.81617 1.654-1.5621 0.12196-1.8129 0.33948-0.27749 1.6417-0.59245 1.7467z" stroke="#898989" stroke-linecap="round" stroke-linejoin="round" stroke-width=".1"/>
 <path d="m359.8 53.763c-0.47245 0.26247-2.2108-1.2721-2.7477-1.2104s-1.8819 1.9506-2.4016 1.8021-0.66376-2.4628-1.087-2.7988-2.71 0.04852-2.9724-0.42393 1.2721-2.2108 1.2104-2.7477-1.9506-1.8819-1.8021-2.4016 2.4628-0.66377 2.7988-1.087-0.0485-2.71 0.42393-2.9724 2.2108 1.2721 2.7477 1.2104 1.8819-1.9506 2.4016-1.8021 0.66377 2.4628 1.087 2.7988 2.71-0.04852 2.9724 0.42392-1.2721 2.2108-1.2104 2.7477 1.9506 1.8819 1.8021 2.4016-2.4628 0.66377-2.7988 1.087 0.0485 2.71-0.42392 2.9724z" stroke="#898989" stroke-linecap="round" stroke-linejoin="round" stroke-width=".1"/>
 <path transform="translate(7.8933 31.573)" d="m434.13 30.083c-0.57743 0.31496-2.6785-1.569-3.3325-1.499s-2.3087 2.356-2.9397 2.1704-0.78456-3.0034-1.2965-3.4164-3.2984 0.03348-3.6134-0.54395 1.569-2.6785 1.499-3.3325-2.356-2.3087-2.1704-2.9397 3.0034-0.78456 3.4164-1.2965-0.0335-3.2984 0.54395-3.6134 2.6785 1.569 3.3325 1.499 2.3087-2.356 2.9397-2.1704 0.78456 3.0034 1.2965 3.4164 3.2984-0.03348 3.6134 0.54395-1.569 2.6785-1.499 3.3325 2.356 2.3087 2.1704 2.9397-3.0034 0.78456-3.4164 1.2965 0.0335 3.2984-0.54395 3.6134z" stroke="#898989" stroke-linecap="round" stroke-linejoin="round" stroke-width=".1"/>
 <path d="m208.51 37.318c-0.36745 0.36745-2.38-0.59211-2.8601-0.39324s-1.2247 2.3005-1.7443 2.3005-1.2642-2.1016-1.7443-2.3005-2.4926 0.7607-2.8601 0.39324 0.59211-2.38 0.39324-2.8601-2.3004-1.2247-2.3004-1.7443 2.1016-1.2642 2.3004-1.7443-0.76069-2.4926-0.39324-2.8601 2.38 0.59211 2.8601 0.39325 1.2247-2.3005 1.7443-2.3005 1.2642 2.1016 1.7443 2.3005 2.4926-0.7607 2.8601-0.39324-0.59211 2.38-0.39324 2.8601 2.3004 1.2247 2.3004 1.7443-2.1016 1.2642-2.3004 1.7443 0.7607 2.4926 0.39324 2.8601z" stroke="#898989" stroke-linecap="round" stroke-linejoin="round" stroke-width=".1"/>
 <path d="m91.431 55.078c0.41995 0.73491-1.9504 3.4862-1.8437 4.3259s3.0902 2.9104 2.8674 3.727-3.8443 1.086-4.3626 1.7552 0.12711 4.243-0.6078 4.663-3.4862-1.9504-4.3259-1.8437-2.9104 3.0902-3.727 2.8674-1.086-3.8443-1.7552-4.3626-4.243 0.12711-4.663-0.6078 1.9504-3.4862 1.8437-4.3259-3.0902-2.9104-2.8674-3.727 3.8443-1.086 4.3626-1.7552-0.12711-4.243 0.6078-4.663 3.4862 1.9504 4.3259 1.8437 2.9104-3.0902 3.727-2.8674 1.086 3.8443 1.7552 4.3626 4.243-0.12711 4.663 0.6078z" stroke="#898989" stroke-linecap="round" stroke-linejoin="round" stroke-width=".1"/>
 <path d="m50.649 117.57a4.2755 4.6044 0 1 1 -8.5511 0 4.2755 4.6044 0 1 1 8.5511 0z" stroke="#898989" stroke-linecap="round" stroke-linejoin="round" stroke-width=".1"/>
 <path transform="translate(-18.418 40.782)" d="m467.68 166.57a16.115 16.115 0 1 1 -32.231 0 16.115 16.115 0 1 1 32.231 0z" stroke="#898989" stroke-linecap="round" stroke-linejoin="round" stroke-width=".1"/>
 <path d="m154.71 399.47-20.875 20.688h-0.15625v46.688h42.094v-46.688h-0.1875l-20.875-20.688z" stroke="#898989" stroke-linecap="round" stroke-linejoin="round" stroke-width=".1"/>
 <path d="m308.47 386.78-18.781 19 9.8125 2.4062-11.781 7.125c0.16351 1.5197 0.31305 10.362 0.4375 10.594 0.13496 0.25165 6.7096 2.3164 6.7812 2.625s-4.1248 8.5155-4.125 8.8438 4.1971 8.5354 4.125 8.8438-6.6772 2.3425-6.8125 2.5938-0.28662 10.774-0.46875 10.938c-0.14456 0.13005-3.8573-3.0028-5.5-4.2812v8.75h52.625v-50.562h0.25z" stroke="#898989" stroke-linecap="round" stroke-linejoin="round" stroke-width=".1"/>
 <path d="m217.16 345.16c0.0611 1.3085 0.13082 2.366 0.1875 2.4375 0.18474 0.23317 9.2144 2.1516 9.3125 2.4375s-5.6872 7.8834-5.6875 8.1875 5.7549 7.9018 5.6562 8.1875-9.1274 2.1734-9.3125 2.4062-0.40694 9.9732-0.65625 10.125-8.3104-4.5213-8.5938-4.4688-6.3729 7.3656-6.6562 7.3125-3.626-9.1289-3.875-9.2812c-0.17582-0.10753-4.6893 0.57005-7.4375 0.90625v90.812h72.125c-1.6039-3.4215-5.94-14.294-6.25-14.344-0.36869-0.05874-8.5364 13.165-8.875 12.938s0.77529-18.158 0.5-18.531-12.034 3.1076-12.219 2.625 7.733-14.049 7.6562-14.594-10.977-8.1024-10.938-8.6562 11.724-4.5226 11.875-5.0312-5.6858-16.243-5.4375-16.656 11.272 6.6843 11.594 6.4062 1.7623-18.166 2.125-18.281 6.4751 15.379 6.8438 15.438c0.17086 0.02722 2.0679-2.8587 4.0312-5.875v-54.5h-45.969zm45.969 118.59c-0.01893 0.14776-0.04473 0.34072-0.0625 0.46875h0.0625v-0.46875z" stroke="#898989" stroke-linecap="round" stroke-linejoin="round" stroke-width=".1"/>
 <path d="m241.06 459.53c-119.1 0-218.27 9.1145-240.03 21.156h480.09c-19.33-10.698-99.799-19.075-201.03-20.812-0.12459 2.3136-0.2835 7.0593-0.4375 7.1562-0.20079 0.1264-6.678-3.7937-6.9062-3.75s-5.1468 6.138-5.375 6.0938-2.9244-7.5919-3.125-7.7188-7.5075 1.0691-7.6562 0.875c-0.05939-0.07749 0.28933-1.425 0.71875-2.9375-5.3772-0.03778-10.783-0.0625-16.25-0.0625z"/>
 <path d="m304.33 267.9-43.733 150.93c-4.907 2.4383-8.3552 7.7881-8.4577 14.062-0.14176 8.6742 6.1606 15.823 14.098 15.95s14.502-6.8137 14.644-15.488c0.0534-3.2697-0.8097-6.3218-2.3331-8.8612l33.115-154.38-7.3341-2.2078z" fill="none" stroke="#000" stroke-width="1.0387"/>
 <path d="m160.33 199.41 43.28 140.54c4.8562 2.2704 8.2687 7.252 8.3702 13.093 0.14029 8.077-6.0968 14.733-13.953 14.852s-14.352-6.3447-14.492-14.422c-0.0528-3.0446 0.80132-5.8866 2.3089-8.2512l-32.773-143.75 7.2582-2.0558z" fill="none" stroke="#000" stroke-width=".99707"/>
 <path transform="matrix(.55275 0 0 .55275 -217.37 154.42)" d="m467.68 166.57a16.115 16.115 0 1 1 -32.231 0 16.115 16.115 0 1 1 32.231 0z" stroke="#898989" stroke-linecap="round" stroke-linejoin="round" stroke-width=".1"/>
 <path transform="translate(-109.19 268.37)" d="m208.51 37.318c-0.36745 0.36745-2.38-0.59211-2.8601-0.39324s-1.2247 2.3005-1.7443 2.3005-1.2642-2.1016-1.7443-2.3005-2.4926 0.7607-2.8601 0.39324 0.59211-2.38 0.39324-2.8601-2.3004-1.2247-2.3004-1.7443 2.1016-1.2642 2.3004-1.7443-0.76069-2.4926-0.39324-2.8601 2.38 0.59211 2.8601 0.39325 1.2247-2.3005 1.7443-2.3005 1.2642 2.1016 1.7443 2.3005 2.4926-0.7607 2.8601-0.39324-0.59211 2.38-0.39324 2.8601 2.3004 1.2247 2.3004 1.7443-2.1016 1.2642-2.3004 1.7443 0.7607 2.4926 0.39324 2.8601z" stroke="#898989" stroke-linecap="round" stroke-linejoin="round" stroke-width=".1"/>
</svg>
